PathFileType	4	(X/Y/Z)	 s09c0401.trc
DataRate	CameraRate	NumFrames	NumMarkers	Units	OrigDataRate	OrigDataStartFrame	OrigNumFrames
200	200	5	50	mm	200	1251	2000
Frame#	Time	racr			lacr			c7			jug			rlel			rdr			llel			ldr			s2			lic			ric			lasi			rasi			rpsi			lpsi			rgt			lgt			rth1			rth2			rth3			rth4			rlfc			rmfc			rsh1			rsh2			rsh3			rsh4			rlmal			rmmal			rcal			rtoe			rmt5			lth1			lth2			lth4			lth3			llfc			lmfc			llmal			lmmal			lcal			lmt5			lsh1			lsh2			lsh3			lsh4			ltoe			SBIKE			LBIKE			RBIKE			
		X1	Y1	Z1	X2	Y2	Z2	X3	Y3	Z3	X4	Y4	Z4	X5	Y5	Z5	X6	Y6	Z6	X7	Y7	Z7	X8	Y8	Z8	X9	Y9	Z9	X10	Y10	Z10	X11	Y11	Z11	X12	Y12	Z12	X13	Y13	Z13	X14	Y14	Z14	X15	Y15	Z15	X16	Y16	Z16	X17	Y17	Z17	X18	Y18	Z18	X19	Y19	Z19	X20	Y20	Z20	X21	Y21	Z21	X22	Y22	Z22	X23	Y23	Z23	X24	Y24	Z24	X25	Y25	Z25	X26	Y26	Z26	X27	Y27	Z27	X28	Y28	Z28	X29	Y29	Z29	X30	Y30	Z30	X31	Y31	Z31	X32	Y32	Z32	X33	Y33	Z33	X34	Y34	Z34	X35	Y35	Z35	X36	Y36	Z36	X37	Y37	Z37	X38	Y38	Z38	X39	Y39	Z39	X40	Y40	Z40	X41	Y41	Z41	X42	Y42	Z42	X43	Y43	Z43	X44	Y44	Z44	X45	Y45	Z45	X46	Y46	Z46	X47	Y47	Z47	X48	Y48	Z48	X49	Y49	Z49	X50	Y50	Z50	
1251	6.2550	702.599045	1261.894961	-22.909159	734.711465	1224.686460	-391.198277	717.970738	1335.069324	-211.496215	707.935834	1195.295318	-205.635037	609.976213	1052.203751	95.481023	646.235262	860.861170	-51.545987	573.135808	1068.308750	-558.512278	624.404631	862.439336	-436.833031	226.160234	1173.293482	-234.697868	371.450911	1153.841564	-370.939361	355.879619	1137.960333	-75.953396	396.595984	1086.574826	-348.141149	390.625978	1077.148455	-99.348209	259.974587	1193.723195	-169.696275	263.554445	1209.856441	-277.628346	295.559236	990.945338	-52.029656	331.304966	1038.930594	-422.146420	342.955290	860.539024	-52.951701	380.369856	783.008593	-66.910524	371.754999	695.373176	-81.047131	410.316659	790.232742	-87.288796	383.722950	606.061471	-111.979894	362.801270	585.812123	-206.404368	336.007085	515.837005	-77.609118	340.149867	426.753196	-89.565697	299.157190	349.348824	-88.309748	364.608360	424.365612	-120.742770	268.132317	252.382163	-87.721022	275.797619	259.601493	-161.600342	190.533826	240.022726	-123.810414	435.904371	141.530516	-126.602823	352.527885	153.601476	-61.959073	430.203080	941.895629	-416.329465	504.289492	904.120224	-401.665552	525.671356	928.032952	-381.742534	553.862125	828.877503	-399.336059	586.947759	739.580904	-377.688383	580.708096	722.767520	-277.944158	246.183949	602.975642	-406.576511	261.418928	599.689973	-332.271428	163.579714	627.305293	-369.333694	260.164534	483.250734	-430.489761	498.150047	700.926679	-403.871741	426.451439	651.766548	-397.584138	338.196558	643.081458	-403.922953	435.404443	629.535247	-366.431286	338.911087	435.113292	-360.523068	-64.801473	853.696446	-238.536328	20.762451	84.804400	-441.954622	21.104505	84.006785	-43.778932	
1252	6.2600	702.835767	1263.170245	-25.593586	734.193121	1225.205271	-394.270114	717.989423	1335.800047	-214.634691	708.320221	1196.083503	-208.567537	609.714355	1053.530608	93.402253	646.700823	860.780698	-52.166313	572.485052	1067.489849	-560.273525	624.445862	862.811737	-436.813310	226.130080	1172.500086	-231.895815	369.815053	1154.280292	-370.407135	357.783940	1136.131895	-75.712822	395.734463	1086.917239	-348.339983	391.840716	1075.579378	-100.257299	260.860704	1192.498036	-167.403842	262.927999	1209.381853	-274.986901	296.751743	989.213032	-50.294548	329.890948	1039.665635	-421.406104	340.989357	859.609148	-51.653490	376.286074	781.034045	-65.785556	365.674270	693.556484	-79.445533	406.361114	787.488735	-86.193060	376.385401	604.168796	-111.061980	355.348070	583.953522	-206.061093	328.457243	514.039735	-77.103163	332.539245	425.092047	-88.901456	291.366745	347.654989	-87.845379	357.079979	422.732836	-120.105627	260.393207	251.073575	-87.497834	268.098022	257.933133	-161.294512	182.723757	239.818861	-123.790137	426.534092	137.396130	-126.358604	343.173560	150.799348	-61.904599	431.071871	944.718200	-415.383215	505.865219	908.299255	-401.025295	526.986347	932.831269	-381.249495	556.994243	834.175895	-398.547499	592.337745	745.321269	-377.290146	586.560013	728.217523	-277.399337	252.759459	605.303455	-406.314788	267.901870	602.417079	-331.947068	169.383008	628.033124	-369.276007	269.358326	486.400616	-430.654412	503.721681	705.951237	-403.404382	432.466147	656.111712	-397.200629	344.298512	646.575897	-403.553360	441.449903	633.916264	-366.086506	349.188229	439.997481	-360.699115	-64.798273	853.664691	-238.455379	20.761022	84.796814	-441.952034	21.095779	84.007925	-43.793000	
1253	6.2650	703.145040	1264.433054	-28.366618	733.632730	1225.664099	-397.448966	718.348133	1336.467292	-218.170948	708.688686	1197.025471	-211.567687	609.279878	1054.843123	91.116359	647.283569	860.891742	-52.767607	571.795723	1066.692990	-562.106997	624.770720	862.998539	-436.474517	226.148758	1171.844643	-229.036054	368.091049	1154.846089	-369.928523	359.860919	1134.391612	-75.439176	394.751182	1087.377329	-348.632368	393.005125	1073.810793	-101.164708	261.515959	1191.920313	-164.613094	262.288785	1209.084190	-272.315088	297.996910	987.849173	-48.384060	328.133030	1040.749947	-420.502257	338.972503	859.002652	-50.649856	372.622749	779.705698	-64.740335	359.807976	692.220443	-77.790841	402.536617	785.196733	-85.092868	369.535069	602.527397	-110.199068	348.688079	582.477579	-205.597423	321.324029	512.784416	-76.630167	325.097592	423.872742	-88.435703	283.623284	346.673383	-87.473349	349.745940	421.265400	-119.445048	252.742468	250.020958	-87.398091	260.454277	256.905045	-161.014214	174.661017	240.101059	-123.628612	416.229988	133.426639	-127.355071	333.859025	148.564982	-61.809264	431.960653	947.546388	-414.422036	506.629814	912.598069	-400.907103	528.182325	937.541423	-380.691524	559.799428	839.348747	-397.837304	597.209399	751.201092	-376.915743	592.093404	733.626112	-276.856126	259.319438	607.076752	-405.981935	273.855947	604.555368	-331.645941	175.237505	628.138044	-369.221949	278.629987	488.929497	-430.728521	508.964961	710.917129	-402.898050	438.368681	660.207758	-396.738327	350.322373	649.655195	-403.144297	447.658974	638.180946	-365.900911	359.424222	444.530069	-360.858637	-64.836022	853.664059	-238.467720	20.745691	84.802633	-441.963718	21.079747	84.014617	-43.792763	
1254	6.2700	703.578396	1265.612816	-31.235514	733.156981	1226.071537	-400.559087	718.515530	1336.991686	-221.409621	709.067033	1197.812487	-214.648904	608.787464	1056.246333	88.734902	646.937055	860.560189	-53.037830	571.267713	1065.748508	-563.846971	624.725683	863.456988	-436.533279	226.387561	1171.434201	-226.000661	366.487178	1155.457132	-369.339322	362.115836	1132.794375	-75.305469	393.688082	1087.808788	-348.846420	394.354555	1072.371610	-102.009283	262.284493	1191.443417	-161.892636	261.766492	1208.974532	-269.666351	299.136729	986.818066	-46.684972	326.310523	1041.923283	-419.711043	336.977842	858.507102	-49.921732	368.953275	778.487050	-63.528919	354.341515	691.322959	-76.251823	399.093909	783.319342	-83.961644	363.295009	601.323424	-109.324750	342.257226	581.577438	-205.398642	314.683051	512.072516	-76.139954	317.972808	423.055196	-87.876939	276.093437	346.052020	-87.119820	342.834967	420.337749	-118.701794	244.928952	249.752589	-86.816426	252.577538	256.529174	-160.756004	167.282837	240.670921	-123.697021	406.433542	130.307859	-127.263089	324.217704	146.877782	-61.677352	432.605852	950.390471	-413.486136	509.134305	916.635647	-399.375084	529.062749	942.020602	-380.193298	561.956803	844.164547	-397.656538	601.577961	757.187766	-376.460886	597.834828	739.271827	-275.529777	265.966190	608.182344	-405.680224	280.833539	605.880112	-331.191143	181.112861	627.428839	-369.123910	287.999655	490.932283	-430.858369	514.046111	715.767758	-402.251273	444.144800	664.008315	-396.299691	356.218493	652.264238	-402.671217	453.795744	642.015024	-365.544025	369.863100	448.485769	-360.811483	-64.870433	853.650686	-238.448905	20.745985	84.794685	-441.946914	21.080244	84.003518	-43.797953	
1255	6.2750	704.081270	1266.633214	-34.175161	732.645221	1226.439126	-403.725857	718.835237	1337.522365	-224.661939	709.537795	1198.528917	-217.754658	608.280940	1057.620096	86.240899	647.143632	860.452155	-53.477739	570.756621	1064.908180	-565.679889	624.687722	863.875240	-436.676674	226.689921	1171.320968	-223.018175	364.832213	1156.274628	-368.850572	364.545166	1131.381490	-75.006608	392.565026	1088.460504	-349.148687	395.622863	1071.039949	-102.893501	263.092861	1191.278196	-159.126768	261.212430	1209.186896	-267.005031	300.248503	986.259256	-45.275056	324.682272	1043.441330	-418.996716	335.202018	858.299948	-49.004734	365.961782	777.423782	-62.500058	349.454673	690.858973	-74.831763	395.501658	781.662004	-82.527857	357.593259	600.503950	-108.526567	335.193317	582.027429	-205.175896	308.454884	511.826509	-75.822524	311.124553	422.732142	-87.486870	268.668281	346.022752	-86.782609	335.990968	419.744137	-118.219869	236.949195	250.114596	-86.470786	244.532927	256.687577	-160.488616	156.526435	244.331359	-122.069037	396.556760	128.058257	-127.151925	314.544568	145.768375	-61.666129	433.367156	953.315530	-412.173980	510.275332	920.853127	-398.632139	529.974984	946.600138	-379.552452	565.322352	849.155087	-396.075919	605.582262	763.133987	-375.803183	602.186125	744.199777	-275.790635	272.618672	608.569856	-405.398559	287.314536	606.740813	-330.997387	187.198745	625.931004	-368.817719	297.455185	492.343789	-430.950086	518.573788	720.589162	-401.941703	449.766129	667.590654	-395.731445	362.097329	654.408142	-402.203948	459.832266	645.427446	-365.196081	380.296137	451.930969	-360.871698	-64.866820	853.659250	-238.412112	20.752529	84.803788	-441.937872	21.080582	84.014608	-43.793379	
